<?xml version="1.0" standalone="no"?>
<!DOCTYPE svg PUBLIC "-//W3C//DTD SVG 20010904//EN"
 "http://www.w3.org/TR/2001/REC-SVG-20010904/DTD/svg10.dtd">
<svg version="1.0" xmlns="http://www.w3.org/2000/svg"
 width="65.000000pt" height="65.000000pt" viewBox="0 0 65.000000 65.000000"
 preserveAspectRatio="xMidYMid meet">

<g transform="translate(0.000000,65.000000) scale(0.100000,-0.100000)"
fill="#000000" stroke="none">
<path d="M355 628 c-15 -12 -40 -41 -55 -64 l-27 -43 -28 19 c-16 10 -57 27
-92 36 -60 16 -65 16 -81 0 -14 -13 -14 -20 -4 -36 6 -11 12 -28 12 -37 0 -10
11 -42 25 -71 l24 -52 -27 -17 c-129 -80 -122 -160 16 -172 l67 -6 6 -67 c8
-99 43 -129 107 -94 15 8 35 17 45 20 11 3 17 16 17 33 0 54 12 59 71 29 57
-28 107 -34 127 -14 19 19 14 87 -12 137 l-23 48 44 28 c42 26 83 76 83 101 0
5 -15 27 -34 47 -33 37 -59 46 -71 27 -3 -5 -22 -10 -41 -10 -33 0 -34 1 -34
38 0 48 -17 107 -36 127 -21 21 -46 19 -79 -7z m82 -38 c7 -19 12 -54 12 -76
1 -35 -3 -43 -21 -48 -43 -11 -69 -6 -103 20 -34 25 -34 26 -18 52 9 15 30 42
47 60 39 42 67 39 83 -8z m-327 -40 c0 -5 -4 -10 -10 -10 -5 0 -10 5 -10 10 0
6 5 10 10 10 6 0 10 -4 10 -10z m113 -21 c41 -21 42 -23 26 -68 -7 -21 -24
-38 -50 -51 -21 -11 -41 -20 -43 -20 -7 0 -56 96 -56 109 0 5 10 21 23 35 24
28 35 27 100 -5z m101 -68 c6 -9 -53 -35 -61 -27 -2 2 2 15 8 29 10 21 15 24
30 17 10 -6 20 -14 23 -19z m117 -23 c-1 -5 -1 -18 -1 -30 l0 -21 -25 23 c-19
18 -22 26 -13 32 15 9 39 6 39 -4z m100 -4 c9 -11 22 -14 45 -10 36 7 51 -12
33 -45 -12 -22 -86 -79 -104 -79 -23 0 -59 63 -56 100 2 19 5 38 8 43 8 13 60
7 74 -9z m-141 -39 l33 -34 -12 -55 c-12 -54 -14 -56 -54 -66 -23 -6 -47 -13
-53 -15 -6 -2 -30 16 -53 39 l-41 42 15 50 c13 43 20 53 47 62 59 18 82 14
118 -23z m-184 -27 c-3 -13 -6 -26 -6 -30 0 -16 -20 -7 -31 13 -9 17 -8 23 2
30 26 16 42 10 35 -13z m-43 -41 c21 -28 25 -41 20 -75 l-6 -42 -56 0 c-61 0
-101 19 -101 49 0 24 83 99 111 101 4 0 18 -15 32 -33z m307 -27 c8 -15 5 -20
-20 -29 -29 -10 -30 -9 -24 17 12 48 23 51 44 12z m-233 -54 c25 -26 21 -36
-14 -36 -19 0 -23 5 -23 30 0 36 8 37 37 6z m281 -23 c57 -114 21 -153 -89
-97 -39 19 -49 29 -44 42 4 9 11 29 16 43 9 24 45 46 81 48 11 1 25 -14 36
-36z m-144 -25 c-9 -32 -10 -33 -41 -13 -26 17 -26 19 -8 26 40 15 57 11 49
-13z m-58 -24 c40 -31 39 -42 -2 -64 -19 -11 -31 -27 -34 -46 -4 -20 -12 -30
-27 -32 -31 -5 -51 32 -55 97 -3 51 -1 55 22 62 44 13 61 10 96 -17z m14 -105
c0 -5 -7 -9 -15 -9 -15 0 -20 12 -9 23 8 8 24 -1 24 -14z"/>
<path d="M284 355 c-15 -23 -15 -27 0 -50 29 -44 96 -29 96 21 0 53 -67 73
-96 29z m66 -10 c10 -12 10 -18 0 -30 -25 -30 -61 -7 -46 30 3 8 12 15 19 15
8 0 20 -7 27 -15z"/>
</g>
</svg>
