<?xml version="1.0" encoding="iso-8859-1"?>
<!-- Uploaded to: SVG Repo, www.svgrepo.com, Generator: SVG Repo Mixer Tools -->
<svg height="800px" width="800px" version="1.1" id="Layer_1" xmlns="http://www.w3.org/2000/svg" xmlns:xlink="http://www.w3.org/1999/xlink" 
	 viewBox="0 0 512.001 512.001" xml:space="preserve">
<path style="fill:#578CAD;" d="M374.193,434.237H210.206c-18.115,0-32.799,14.684-32.799,32.797v17.075
	c0,10.949,8.875,19.82,19.821,19.82H387.17c10.945,0,19.82-8.872,19.82-19.82v-17.075
	C406.99,448.919,392.305,434.237,374.193,434.237z"/>
<path style="fill:#3A5D74;" d="M177.407,469.083v15.026c0,10.949,8.875,19.82,19.821,19.82H387.17c10.945,0,19.82-8.872,19.82-19.82
	v-15.026H177.407z"/>
<path style="fill:#89DC6D;" d="M288.07,95.063c-52.367,0-94.971,42.604-94.971,94.971s42.604,94.971,94.971,94.971
	s94.971-42.604,94.971-94.971S340.438,95.063,288.07,95.063z"/>
<path style="fill:#90C8EC;" d="M405.931,258.362c-23.623,40.59-67.609,67.933-117.861,67.933
	c-75.136,0-136.262-61.128-136.262-136.261S212.934,53.77,288.07,53.77c75.134,0,136.263,61.13,136.263,136.263
	c0,15.613-2.64,30.619-7.497,44.601 M288.07,95.063c-52.367,0-94.971,42.604-94.971,94.971s42.604,94.971,94.971,94.971
	s94.971-42.604,94.971-94.971S340.438,95.063,288.07,95.063z"/>
<g style="opacity:0.2;">
	<path style="fill:#231F20;" d="M218.548,190.034c0-48.052,35.875-87.878,82.247-94.115c-4.164-0.561-8.41-0.856-12.724-0.856
		c-52.367,0-94.971,42.604-94.971,94.971s42.604,94.971,94.971,94.971c4.314,0,8.561-0.296,12.724-0.856
		C254.423,277.912,218.548,238.085,218.548,190.034z"/>
</g>
<g style="opacity:0.2;">
	<path style="fill:#231F20;" d="M177.257,190.034c0-70.843,54.346-129.225,123.538-135.664c-4.192-0.39-8.434-0.599-12.724-0.599
		c-75.136,0-136.262,61.13-136.262,136.263s61.126,136.261,136.261,136.261c4.281,0,8.511-0.214,12.693-0.603
		C231.587,319.24,177.257,260.866,177.257,190.034z"/>
</g>
<g>
	<path style="fill:#231F20;" d="M288.07,86.992c-56.818,0-103.042,46.224-103.042,103.042s46.224,103.042,103.042,103.042
		s103.042-46.224,103.042-103.042S344.888,86.992,288.07,86.992z M288.07,276.934c-47.917,0-86.9-38.984-86.9-86.9
		s38.983-86.9,86.9-86.9c47.916,0,86.9,38.984,86.9,86.9S335.987,276.934,288.07,276.934z"/>
	<path style="fill:#231F20;" d="M288.07,45.699c-21.042,0-41.045,4.528-59.091,12.659L197.618,4.035
		c-1.071-1.854-2.832-3.206-4.901-3.76c-2.066-0.553-4.271-0.264-6.124,0.806c-49.459,28.554-84.838,74.661-99.619,129.826
		c-14.782,55.165-7.196,112.784,21.359,162.243c19.114,33.108,46.719,60.493,79.831,79.195
		c29.357,16.58,62.349,25.995,95.965,27.504v26.318h-73.922c-22.535,0-40.871,18.333-40.871,40.868v2.049v15.026
		c0,15.379,12.512,27.891,27.892,27.891h189.942c15.379,0,27.891-12.512,27.891-27.891v-15.026v-2.049
		c0-22.534-18.334-40.868-40.869-40.868h-73.922v-26.186c35.06-1.094,69.547-10.912,100.133-28.57
		c1.854-1.07,3.206-2.833,3.76-4.901c0.554-2.068,0.265-4.271-0.806-6.124L372.5,306.937c16.196-11.687,30.068-26.748,40.408-44.514
		c2.242-3.853,0.936-8.793-2.916-11.036c-3.85-2.242-8.792-0.938-11.036,2.916c-20.059,34.464-55.049,57.516-93.895,62.774
		c-0.152,0.02-0.303,0.038-0.455,0.057c-1.207,0.159-2.418,0.302-3.632,0.427c-0.394,0.04-0.789,0.07-1.183,0.107
		c-1.004,0.094-2.009,0.184-3.017,0.253c-0.703,0.047-1.409,0.077-2.114,0.114c-0.73,0.038-1.457,0.085-2.189,0.111
		c-1.465,0.049-2.931,0.079-4.4,0.079c-70.685,0-128.191-57.506-128.191-128.19c0-1.348,0.028-2.691,0.07-4.032
		c0.012-0.388,0.029-0.776,0.044-1.164c0.041-1.017,0.094-2.033,0.158-3.045c0.023-0.363,0.043-0.726,0.069-1.088
		c0.095-1.31,0.206-2.615,0.339-3.915c0.027-0.263,0.061-0.523,0.09-0.785c0.114-1.043,0.24-2.081,0.379-3.118
		c0.062-0.467,0.128-0.932,0.196-1.398c0.127-0.875,0.266-1.747,0.41-2.616c0.075-0.454,0.145-0.909,0.226-1.361
		c0.204-1.15,0.426-2.295,0.661-3.436c0.131-0.638,0.274-1.272,0.416-1.907c0.125-0.561,0.252-1.121,0.383-1.68
		c0.175-0.741,0.354-1.482,0.542-2.218c0.08-0.314,0.166-0.627,0.249-0.941c6.761-25.61,21.269-48.103,40.853-64.818
		c0.6-0.51,1.198-1.022,1.808-1.522c0.294-0.242,0.593-0.478,0.89-0.717c0.949-0.762,1.904-1.52,2.877-2.258
		c0.017-0.013,0.033-0.026,0.051-0.039c5.868-4.443,12.172-8.429,18.872-11.89c0.215-0.112,0.423-0.236,0.626-0.365
		c17.422-8.874,37.128-13.882,57.982-13.882c70.686,0,128.192,57.506,128.192,128.192c0,14.371-2.372,28.486-7.051,41.953
		c-1.462,4.21,0.765,8.81,4.976,10.273c4.21,1.46,8.81-0.766,10.273-4.976c5.271-15.175,7.944-31.071,7.944-47.25
		C432.404,110.447,367.656,45.699,288.07,45.699z M398.919,484.109c0,6.479-5.271,11.749-11.749,11.749H197.228
		c-6.479,0-11.75-5.27-11.75-11.749v-6.955h213.442L398.919,484.109L398.919,484.109z M398.175,461.012H186.223
		c2.697-10.732,12.425-18.704,23.983-18.704h163.987C385.751,442.308,395.478,450.28,398.175,461.012z M288.07,334.366
		c1.593,0,3.183-0.028,4.771-0.08c0.094-0.003,0.187-0.011,0.281-0.014c23.155-0.808,45.661-7.162,65.803-18.564l26.336,45.615
		c-28.275,14.824-59.762,22.624-91.57,22.624c-70.502,0-136.17-37.884-171.379-98.869c-26.399-45.725-33.412-98.994-19.747-149.994
		c12.966-48.392,43.081-89.246,85.189-115.85l26.894,46.584c-4.002,2.375-7.881,4.937-11.623,7.676
		c-0.168,0.123-0.337,0.244-0.504,0.368c-0.907,0.669-1.805,1.349-2.696,2.04c-24.57,18.944-42.209,45.095-50.589,74.615
		c-0.01,0.032-0.018,0.066-0.028,0.099c-0.311,1.099-0.612,2.201-0.897,3.308c-0.034,0.132-0.066,0.266-0.1,0.398
		c-0.481,1.889-0.923,3.79-1.328,5.705c-0.074,0.352-0.155,0.702-0.227,1.055c-0.147,0.722-0.281,1.448-0.418,2.174
		c-0.13,0.69-0.257,1.381-0.378,2.074c-0.112,0.647-0.22,1.295-0.323,1.945c-0.137,0.86-0.263,1.722-0.384,2.587
		c-0.072,0.512-0.15,1.022-0.215,1.536c-0.176,1.361-0.335,2.729-0.472,4.102c-0.037,0.359-0.062,0.721-0.096,1.08
		c-0.1,1.083-0.192,2.167-0.268,3.255c-0.033,0.481-0.062,0.962-0.091,1.444c-0.061,1.022-0.112,2.049-0.152,3.077
		c-0.017,0.443-0.038,0.886-0.051,1.329c-0.043,1.446-0.071,2.896-0.071,4.352C143.737,269.619,208.484,334.366,288.07,334.366z"/>
</g>
<g style="opacity:0.2;">
	<path style="fill:#231F20;" d="M203.084,484.109v-17.075c0-18.113,14.684-32.797,32.799-32.797h-25.678
		c-18.115,0-32.8,14.684-32.8,32.797v17.075c0,10.949,8.875,19.82,19.821,19.82h25.678
		C211.959,503.929,203.084,495.056,203.084,484.109z"/>
</g>
</svg>