<?xml version="1.0" encoding="iso-8859-1"?>
<!-- Uploaded to: SVG Repo, www.svgrepo.com, Generator: SVG Repo Mixer Tools -->
<!DOCTYPE svg PUBLIC "-//W3C//DTD SVG 1.1//EN" "http://www.w3.org/Graphics/SVG/1.1/DTD/svg11.dtd">
<svg fill="#000000" version="1.1" id="Capa_1" xmlns="http://www.w3.org/2000/svg" xmlns:xlink="http://www.w3.org/1999/xlink" 
	 width="800px" height="800px" viewBox="0 0 33.229 33.229"
	 xml:space="preserve">
<g>
	<path d="M25.346,23.177c0.402,0.028,0.806,0.057,1.201,0.072c-0.984,1.479-2.316,2.764-3.963,3.713
		c-1.646,0.947-3.423,1.463-5.195,1.574c0.188-0.363,0.375-0.734,0.556-1.111c0.938-0.115,1.871-0.357,2.774-0.729
		c0.012-0.02,0.021-0.036,0.025-0.053c0.032-0.114,0.133-0.229,0.133-0.229l-0.052-0.132l0.116-0.165c0,0,0.131-0.213,0.213-0.276
		c0.082-0.065,0.771-0.658,0.92-0.771c0.13-0.102,0.701-0.53,0.951-0.734c0.034-0.026,0.062-0.053,0.085-0.069
		c0.164-0.147,0.478-0.543,0.591-0.725c0.055-0.083,0.141-0.294,0.221-0.496H23.92C24.4,23.097,24.876,23.142,25.346,23.177z
		 M13.68,23.984c-0.045-0.007,0.013,0.024,0.051,0.045C13.719,24.006,13.703,23.988,13.68,23.984z M22.635,23.146
		c0.119,0.015,0.276,0.003,0.394,0h0.035c0.114,0,0.214-0.05,0.395-0.148l0.014-0.008l0,0c-0.146-0.019-0.295-0.037-0.44-0.058
		c-0.146-0.021-0.292-0.039-0.438-0.062c0.104,0.08,0.174,0.146,0.145,0.158C22.653,23.063,22.505,23.131,22.635,23.146z
		 M13.732,24.029c0.001,0.001,0.002,0.002,0.002,0.004C13.776,24.053,13.759,24.045,13.732,24.029z M17.442,15.18
		c0,0,0.008,0.009,0.018,0.02C17.469,15.182,17.442,15.18,17.442,15.18z M21.406,17.792H21.38l-0.022,0.095
		c-0.104,0.383-0.21,0.771-0.321,1.158c0.089,0.002,0.173,0.01,0.173,0.01s0.098-0.043,0.127-0.17c0.026-0.127,0.1-0.27,0.1-0.27
		s0.025,0.005,0.07,0.016c0.028-0.053,0.062-0.125,0.062-0.215c0-0.176-0.078-0.215-0.078-0.312c0-0.098,0.038-0.332,0.038-0.332
		L21.406,17.792z M20.882,19.564l-0.053,0.178l0.081-0.015c0,0,0.021,0.056,0.05,0.135c0.02-0.043,0.031-0.076,0.031-0.076
		s0-0.056-0.027-0.169C20.96,19.599,20.923,19.58,20.882,19.564z M21.91,15.803l-0.025-0.013c-0.058,0.236-0.111,0.472-0.172,0.705
		c0.041,0.025,0.012,0.033,0.178,0.04c0.236,0.012,0.072,0.012,0.248,0.012c0.177,0,0.205,0.021,0.236-0.053
		c0.03-0.072,0.041,0.041,0.041-0.154c0-0.197-0.093-0.278-0.154-0.33C22.199,15.96,22.094,15.885,21.91,15.803z M33.188,21.056
		c-0.529,1.973-6.28,2.209-13.577,0.752c-2.39,7.048-5.469,11.91-7.441,11.383c-1.244-0.334-1.797-2.745-1.672-6.311
		c0.043,0.022,0.086,0.049,0.127,0.07c-1.755-1.014-3.275-2.482-4.361-4.361c-0.949-1.646-1.463-3.424-1.576-5.197
		c0.347,0.181,0.699,0.354,1.057,0.527c1.278,0.611,2.619,1.17,3.979,1.67H9.719l0.004,0.071l-0.196,0.347L9.346,20.12l0.049,0.082
		l0.033,0.164h-0.1c0,0,0,0.229,0,0.361s0.264,0.181,0.264,0.181L9.51,20.959c0,0,0.017,0.081,0.099,0.214s0.147,0.248,0.181,0.36
		c0.033,0.115,0.082,0.441,0.082,0.441s0.215,0.361,0.313,0.512c0.099,0.146,0.296,0.345,0.378,0.509
		c0.082,0.165,0.263,0.082,0.607,0.165c0.346,0.081,0.492,0.196,0.492,0.196s0.182,0.147,0.297,0.214
		c0.114,0.064,0.229,0.064,0.541,0.064c0.299,0,0.104,0.017,0.469,0.073l0.059,0.009c0.438,0.063,0.092,0.032,0.509,0.224
		l0.017,0.008c0.102,0.045,0.156,0.067,0.186,0.082c0.032,0.076,0.018,0.219,0.029,0.278c0.017,0.082,0.132-0.017,0.214-0.017
		c0.063,0,0.078,0.05,0.149,0.095c0.021,0.014,0.047,0.024,0.08,0.037c0.147,0.049,0.18-0.05,0.18-0.05l0.166,0.196l0.131,0.182
		l-0.131,0.312l-0.115,0.114c0,0,0.018-0.147,0-0.266c-0.018-0.113-0.115,0.053-0.115,0.053l-0.099,0.312l0.36,0.347l0.109,0.099
		l0.236,0.215l0.015,0.042l0.134,0.386l-0.018,0.131l0.082,0.216c0,0-0.104,0.045-0.198,0.065c-0.036,0.009-0.069,0.017-0.097,0.017
		c-0.049,0-0.106,0.057-0.154,0.114c-0.052,0.062-0.093,0.131-0.093,0.131s0.038,0.073,0.093,0.149
		c0.035,0.049,0.076,0.098,0.121,0.13c0.023,0.019,0.044,0.027,0.064,0.044c0.018,0.002,0.035,0.007,0.053,0.009
		c-0.004,0.009-0.008,0.015-0.012,0.021l0,0h0.002l-0.049,0.084l0,0c-0.143,0.246-0.322,0.55-0.529,0.871
		c-1.202-0.232-2.366-0.65-3.448-1.238c0.002,0.001,0.004,0.002,0.006,0.003c0.032,2.153,0.435,3.55,1.224,3.761
		c1.494,0.4,3.916-3.577,5.916-9.396c-0.841-0.188-1.695-0.399-2.562-0.633c-9.153-2.453-16.068-6.335-15.443-8.669
		c0.334-1.244,2.742-1.797,6.307-1.672c-0.041,0.07-0.08,0.143-0.119,0.213c1.015-1.791,2.503-3.345,4.414-4.447
		c1.902-1.101,3.982-1.611,6.033-1.6c-0.072-0.001-0.146-0.003-0.22-0.002c1.674-3.148,3.36-4.96,4.602-4.627
		c2.334,0.626,2.238,8.557-0.215,17.709c-0.229,0.867-0.477,1.714-0.729,2.535c6.039,1.179,10.692,1.07,11.098-0.425
		c0.211-0.788-0.797-1.834-2.646-2.938c0-0.005,0-0.01,0-0.014c-0.031,1.232-0.252,2.452-0.652,3.611
		c-0.382,0.02-0.732,0.021-1.017,0.021l0,0c-0.231,0-0.413-0.004-0.521-0.008c-0.31-0.012-0.621-0.024-0.934-0.049
		c0.055-0.192,0.104-0.334,0.112-0.413c0.017-0.101,0.072-0.255,0.072-0.255l-0.367-0.084l-0.043-0.24l-0.155-0.026l-0.142,0.27
		c0,0-0.111,0.169-0.24,0.238c-0.125,0.068-0.295,0.084-0.295,0.084l0.041-0.195c-0.068-0.029-0.211,0.027-0.211,0.027l-0.016-0.186
		c0,0-0.084-0.185-0.154-0.195c-0.07-0.017-0.185-0.17-0.185-0.17s-0.042-0.059-0.084-0.172c-0.002-0.003-0.007-0.007-0.014-0.012
		l0.021-0.097c0,0,0.133-0.148,0.244-0.279c0.11-0.131,0.147,0.131,0.262,0.228c0.113,0.094,0.075,0.24,0.075,0.24
		s0.074,0.038,0.168,0.038c0.095,0,0.132,0.074,0.132,0.074l0.188,0.074l0.188-0.207c0,0,0.036-0.131,0.168-0.131
		c0.131,0,0.021,0.168,0.021,0.264c0,0.094,0.094,0,0.354-0.112c0.262-0.109,0.147-0.094,0.393-0.226
		c0.244-0.131,0.113-0.094,0.205-0.168c0.097-0.074,0.17-0.149,0.17-0.149l0.205,0.135l0.227-0.039l0.226-0.133v0.172
		c0,0-0.148,0.187-0.057,0.314c0.094,0.132,0.111,0.094,0.057,0.263c-0.057,0.169-0.02,0.169,0,0.265
		c0.016,0.068,0.02,0.078,0.021,0.119c0.852-2.788,0.593-5.906-0.979-8.627c-0.752-1.307-1.734-2.396-2.869-3.25
		c0.033-0.418,0.06-0.832,0.076-1.244c1.479,0.985,2.762,2.319,3.711,3.965c1.09,1.886,1.604,3.945,1.601,5.978
		c0-0.055,0.001-0.108,0.001-0.164C31.71,18.127,33.52,19.81,33.188,21.056z M18.868,8.062c0,0,0.118-0.066,0.177-0.093
		c0.062-0.025,0-0.032-0.059-0.074c-0.06-0.042-0.136,0.033-0.136,0.033s-0.032,0.033-0.065,0.108
		c-0.003,0.007-0.006,0.013-0.009,0.017c-0.032,0.039-0.067-0.063-0.075-0.116c-0.009-0.06-0.228-0.019-0.219-0.019
		s0.051,0.109,0.051,0.109S18.55,8.129,18.55,8.17c0,0.043,0,0.117,0.033,0.168c0.033,0.051,0.125,0.127,0.125,0.127l0.067-0.043
		l0.023-0.017l0.103-0.168l0.084-0.075L18.868,8.062z M17.523,7.318c0,0,0.014-0.119,0.079-0.104
		c0.066,0.012,0.132-0.158,0.132-0.158s-0.054-0.105-0.118-0.105c-0.066,0-0.211,0.014-0.211,0.014l-0.04-0.08
		c0,0-0.079-0.013-0.185,0.026c-0.106,0.04-0.133-0.053-0.133-0.053L17.034,6.7l-0.146,0.04l-0.105-0.093
		c0,0-0.039-0.079,0.026-0.079s0.157,0.014,0.157,0.014l0.133-0.093l-0.053-0.104l0.091-0.105c0,0-0.183-0.094-0.224-0.025
		c-0.039,0.064-0.185,0.118-0.185,0.118s0.014-0.04-0.065-0.146c-0.078-0.106,0.039-0.158-0.133-0.119
		c-0.102,0.023-0.183,0.074-0.232,0.111c-0.037,0.026-0.058,0.047-0.058,0.047s-0.185,0.039-0.196,0.105
		c-0.015,0.064,0.224,0.105,0.224,0.105s0.013-0.018,0.03-0.035c0.035-0.038,0.098-0.09,0.142-0.044
		c0.065,0.065,0.118,0.146,0.118,0.146l-0.25,0.131l-0.01-0.008l-0.123-0.098h-0.25l-0.118,0.053l-0.238,0.026
		c0,0,0.04,0.118,0.04,0.185c0,0.067-0.105,0.133-0.105,0.133l-0.141-0.013l-0.018-0.001l-0.146,0.105c0,0-0.158,0.013-0.224,0.064
		c-0.011,0.01-0.022,0.016-0.034,0.018C14.88,7.154,14.817,7.113,14.817,7.2c0,0.105,0.013,0.158-0.065,0.172
		c-0.018,0.004-0.039,0.008-0.062,0.012c-0.084,0.018-0.188,0.041-0.188,0.041s-0.08,0.039-0.146,0.105
		c-0.064,0.064-0.211,0.105-0.211,0.105l-0.021-0.006l-0.242-0.048L13.54,7.727l-0.01,0.021l-0.07,0.165l-0.225,0.026
		c0,0-0.186,0.092-0.197,0.157c-0.007,0.033-0.042,0.064-0.074,0.086c-0.029,0.021-0.058,0.033-0.058,0.033
		s-0.132,0.053-0.198,0.104c-0.065,0.052-0.146,0.157-0.146,0.157l-0.054,0.119l0.094,0.133l-0.211,0.025l0.025,0.105
		c0.105,0.105,0.172,0.158,0.237,0.105c0.065-0.054,0.026-0.094,0.104-0.119c0.047-0.017,0.131-0.045,0.203-0.071
		c0.053-0.019,0.101-0.036,0.127-0.048c0.065-0.025,0.172-0.118,0.25-0.118c0.08,0,0.158-0.013,0.158-0.013l0.031-0.025l0.18-0.146
		l0.211,0.094l0.172-0.026c0,0,0,0.043,0.031,0.076c0.012,0.012,0.027,0.021,0.049,0.028c0.078,0.026,0.197,0.026,0.197,0.026
		s0.065-0.093,0.158-0.093h0.163h0.073l0.027-0.118l0.149,0.069l0.021,0.01l0.119,0.092c0,0-0.053,0.014,0.079,0.066
		c0.08,0.031,0.155,0.021,0.202,0.006c0.029-0.009,0.049-0.02,0.049-0.02l0.225,0.053c0,0,0.014-0.211-0.053-0.211
		c-0.068,0-0.197-0.065-0.197-0.065l0.145-0.053l0.158-0.026l0.04,0.172l0.25-0.08l-0.039-0.145l0.013-0.225l0.237,0.039
		l0.014,0.158c0,0,0.046,0.021,0.097,0.032c0.056,0.015,0.114,0.017,0.114-0.032c0-0.093-0.053-0.158,0.013-0.158
		s0.199-0.039,0.199-0.039l0.064-0.094l0.093-0.211l0.104,0.159l0.146-0.093l-0.027-0.133l0.316-0.146c0,0,0.186-0.026,0.266-0.026
		c0.078,0,0.104-0.024,0.104-0.024s0.053-0.106-0.026-0.106C17.587,7.382,17.523,7.318,17.523,7.318z M14.371,12.423l-0.132,0.064
		l0.304,0.146l0.149,0.008l0.112,0.006c0,0,0.08-0.133,0.094-0.264c0.006-0.062,0.021-0.088,0.045-0.107
		c0.027-0.021,0.068-0.035,0.126-0.078c0.104-0.078,0.08-0.105,0.054-0.184c-0.021-0.06-0.125-0.053-0.18-0.045
		c-0.02,0.002-0.032,0.004-0.032,0.004l-0.219,0.109l-0.019,0.01l-0.105-0.133l-0.146,0.04l-0.145,0.146
		c-0.014-0.014,0.094,0.014,0.094,0.014s0.038-0.014,0.145,0c0.105,0.014-0.026,0.105-0.026,0.105l-0.211,0.053L14.371,12.423z
		 M14.873,9.337l-0.181,0.012h-0.005c0,0-0.035,0.188,0.005,0.299c0.002,0.007,0.005,0.013,0.008,0.02
		c0.038,0.075,0.115,0.15,0.243,0.168c0.051,0.008,0.109,0.006,0.18-0.01c0.117-0.025,0.153-0.033,0.16-0.033l-0.016,0.006
		c0,0,0.023-0.006,0.016-0.006l0.081-0.031l0.103-0.041c0,0,0.17-0.104,0.17-0.197c0-0.094-0.146-0.065-0.264-0.065h-0.009
		c-0.108-0.001-0.099-0.017-0.149-0.146c-0.053-0.133-0.053,0.078-0.053,0.078s-0.053-0.012-0.104-0.131
		c-0.054-0.119-0.066-0.211-0.066-0.211l-0.047,0.024l-0.149,0.08l0.039,0.079L14.873,9.337z M14.74,13.121
		c0,0,0.053,0.065,0.133,0.173c0.033,0.045,0.055,0.03,0.07,0c0.021-0.041,0.036-0.106,0.073-0.106c0.065,0,0.014,0.106,0.093,0.093
		s0.25-0.014,0.25-0.014l0.005,0.005l0.114,0.127c0,0,0.132-0.065,0.145-0.132c0.014-0.065,0.014-0.065,0.119-0.065
		s0.066-0.014,0.198-0.119c0.132-0.104-0.04-0.196-0.146-0.25c-0.106-0.053-0.015-0.146-0.015-0.146l0.015-0.186
		c0,0,0-0.064-0.015-0.158c-0.013-0.092-0.039-0.158-0.052-0.25c-0.014-0.092-0.105-0.065-0.105-0.065v-0.119
		c0,0,0.197,0,0.264-0.026c0.065-0.025,0-0.158,0-0.158s-0.157-0.064-0.276-0.104c-0.119-0.039-0.04-0.065,0.158-0.079
		c0.196-0.013,0.026-0.104,0.026-0.104l-0.158-0.092c0,0-0.079,0.105-0.211,0.158c-0.029,0.012-0.049,0.023-0.062,0.037
		c-0.047,0.045-0.016,0.1-0.057,0.161v0.104l0.057,0.098l0.035,0.061c0,0-0.012,0.055-0.035,0.112
		c-0.012,0.029-0.025,0.06-0.044,0.086c-0.053,0.079,0.026,0.172,0.026,0.172s0,0.171-0.026,0.265
		c-0.026,0.092-0.226-0.08-0.226-0.08l-0.039,0.225h-0.112h-0.071l0.026,0.119l0.045,0.034l0.073,0.058l0.078,0.119l-0.151-0.055
		l-0.071-0.024L14.74,13.121z M12.671,7.173l-0.225,0.238c0,0,0.197,0.039,0.264,0.025c0.039-0.008,0.146-0.078,0.256-0.154
		c0.08-0.055,0.16-0.109,0.22-0.148c0.146-0.093,0.198-0.065,0.198-0.065l0.053,0.104L13.12,7.359l0.37-0.053l0.044-0.041
		l0.142-0.131l0.146-0.172l0.224,0.014l0.084-0.031l0.192-0.073c0,0,0.158-0.104,0.226-0.225c0.051-0.093,0.086-0.04,0.149-0.025
		c0.019,0.005,0.037,0.005,0.062-0.001c0.104-0.025,0.053-0.119,0.053-0.211c0-0.045,0.062-0.049,0.138-0.048
		c0.076,0.002,0.165,0.009,0.206-0.019c0.078-0.054-0.066-0.158-0.172-0.186L14.95,6.149c-0.083-0.02-0.126-0.029-0.138-0.11
		c-0.008-0.048-0.057-0.063-0.113-0.061c-0.053,0.003-0.111,0.021-0.15,0.047c-0.078,0.054-0.236,0.065-0.185-0.039
		c0.008-0.017,0.021-0.022,0.028-0.033c-0.409,0.086-0.817,0.196-1.223,0.331c0.092-0.002,0.131,0.005,0.191,0.005
		c0.079,0-0.079,0.093-0.079,0.093s-0.237,0.08-0.304,0.133l-0.008,0.007c-0.057,0.054-0.031,0.139-0.031,0.139s0.013,0,0.031,0
		c0.043-0.001,0.119-0.004,0.166-0.014c0.065-0.015,0.119-0.04,0.289-0.146c0.056-0.033,0.088-0.051,0.11-0.062
		c0.05-0.021,0.052-0.009,0.114-0.044C13.74,6.34,13.673,6.54,13.673,6.54l0.25-0.093l0.203-0.009L14.2,6.434l0.079-0.146
		l-0.153-0.033l-0.084-0.02l0.08-0.079h0.004c0.037,0,0.266,0.001,0.338,0.015c0.08,0.012,0,0.104,0,0.104l-0.025,0.104
		l-0.092,0.172c0,0-0.119,0.014-0.211,0.014h-0.01c-0.09,0.006-0.188,0.105-0.188,0.105l-0.185,0.131h-0.221h-0.044l-0.04,0.146
		l-0.211-0.025c0,0-0.025-0.066-0.039-0.158c-0.014-0.094-0.105,0-0.105,0s-0.037,0.156-0.127,0.224
		c-0.017,0.013-0.035,0.022-0.058,0.026C12.777,7.041,12.671,7.173,12.671,7.173z M15.544,5.777
		c-0.113,0.011-0.226,0.021-0.338,0.035c0.014,0.003,0.025,0.009,0.062,0.016c0.078,0.013,0.013,0.039,0.013,0.104
		c0,0.043,0.019,0.06,0.084,0.072c0.033,0.006,0.078,0.012,0.142,0.021c0.185,0.026,0.064-0.054,0.039-0.211
		C15.544,5.8,15.542,5.787,15.544,5.777z M14.833,5.932c0,0,0.014-0.027,0.025-0.067c-0.02,0.004-0.038,0.006-0.057,0.009
		C14.828,5.897,14.833,5.932,14.833,5.932z M16.344,5.725c-0.014,0.031-0.025,0.064-0.021,0.103c0.014,0.118,0.04,0,0.119-0.026
		c0.048-0.017,0.059-0.035,0.068-0.078C16.458,5.723,16.402,5.725,16.344,5.725z M8.614,9.219L8.78,9.23l0.211-0.132l0.211,0.064
		L9.083,9.217c0,0-0.117,0.17-0.145,0.25C8.911,9.545,9.254,9.531,9.254,9.531s0.092-0.25,0.092-0.355
		c0-0.104,0.277-0.172,0.277-0.172l0.078-0.211l0.133,0.094c0,0,0.078-0.146,0.065-0.211c-0.015-0.066-0.251-0.08-0.251-0.08
		l0.236-0.118l0.238,0.065l-0.054,0.461h0.237l0.053,0.08c0,0-0.329,0.184-0.396,0.184c-0.064,0-0.211,0.173-0.211,0.173L9.62,9.587
		c0,0,0.053,0.079,0.157,0.105c0.104,0.025,0.104,0.092,0.104,0.092s0.146-0.053,0.146-0.132S9.974,9.548,9.974,9.548
		s0.117-0.133,0.197-0.225c0.078-0.093,0.5-0.277,0.58-0.37c0.078-0.092,0.025-0.157,0.025-0.157l0.198-0.119
		c0,0,0.053-0.25,0.079-0.315c0.025-0.065,0.303-0.198,0.501-0.343c0.198-0.146,0.225-0.158,0.487-0.225
		c0.265-0.066,0.08-0.094,0.065-0.173c-0.013-0.079-0.224,0.106-0.224,0.106l-0.316-0.094c0,0,0.132,0,0.264-0.104
		c0.133-0.104,0.105-0.026,0.197-0.065c0.094-0.039,0.066-0.08,0.066-0.08h0.145c0,0,0.119-0.117,0.186-0.224
		c0.065-0.104,0.211-0.304,0.211-0.304s-0.329,0.186-0.396,0.211c-0.064,0.025-0.171-0.025-0.25-0.025
		c-0.08,0-0.197,0.131-0.33,0.184c-0.132,0.054-0.277,0.133-0.277,0.133L11.186,7.32l-0.158,0.064l-0.383,0.158
		c0,0,0.065-0.052,0.226-0.145c0.158-0.094,0.315-0.186,0.315-0.186l0.251-0.064l0.021-0.129c-0.101,0.054-0.201,0.104-0.303,0.162
		C10.192,7.744,9.339,8.434,8.614,9.219z M18.541,19.953c0.266-0.845,0.521-1.719,0.762-2.617
		c2.137-7.967,2.383-14.823,0.555-15.312c-0.788-0.211-1.833,0.796-2.938,2.645c-0.013,0-0.023,0-0.035,0
		c1.239,0.029,2.466,0.25,3.632,0.653c0.021,0.381,0.023,0.733,0.022,1.017c0.001,0,0.001,0,0.001,0
		c-0.001,0.23-0.004,0.414-0.008,0.521c-0.036,1.001-0.127,2.026-0.259,3.058c-0.051-0.017-0.104-0.029-0.154-0.033
		c-0.143-0.01-0.146-0.002-0.145,0c-0.002-0.002-0.118-0.1-0.162-0.175c-0.045-0.075-0.131-0.131-0.295-0.186
		c-0.163-0.056-0.151,0.065-0.151,0.065s-0.152,0.108-0.351,0.088c-0.188-0.022-0.234,0.189-0.237,0.205h-0.001l-0.143,0.121
		c0,0-0.076,0.131-0.164,0.131s-0.151,0.021-0.151,0.021s-0.043,0.163-0.043,0.25c0,0.088-0.089,0.1-0.089,0.1
		S18.078,10.525,18,10.559c-0.076,0.031-0.152,0.076-0.229,0.119c-0.076,0.043-0.044,0.076-0.196,0.164
		c-0.152,0.086-0.207,0.119-0.207,0.119l-0.207,0.043l0.108,0.109l-0.164,0.033c0,0-0.012,0.098,0.01,0.174
		c0.021,0.076,0.188,0.088,0.188,0.088s-0.109,0.087-0.241,0.143c-0.131,0.055-0.131,0.075-0.12,0.131
		c0.011,0.055,0.087,0.174,0.305,0.229c0.22,0.055,0.065-0.011,0.163-0.064c0.1-0.056,0.207-0.088,0.207-0.088
		s0.133,0.219,0.133,0.316c0,0.097-0.033,0.283-0.021,0.35c0.011,0.065,0.119-0.022,0.119-0.022l-0.098,0.108
		c0,0,0.021,0.196,0.021,0.252c0,0.055,0.194,0.021,0.194-0.033c0-0.053,0.108-0.143,0.272-0.152
		c0.163-0.011,0.142-0.032,0.142-0.163c0-0.131,0.033-0.306,0.033-0.306l0.186-0.055c0,0,0.107-0.08,0.178-0.146
		c0.019-0.018,0.031-0.035,0.043-0.05c0.021-0.035-0.004-0.07-0.043-0.104c-0.033-0.027-0.074-0.056-0.102-0.08
		c-0.055-0.055-0.076-0.229-0.076-0.339c0-0.108,0-0.065,0.014-0.142c0.01-0.069,0.092-0.075,0.164-0.092
		c0.007-0.002,0.014-0.004,0.021-0.006c0.076-0.022,0.174-0.152,0.315-0.219c0.142-0.067-0.076-0.076-0.076-0.076
		s0.021-0.119,0.044-0.219c0.021-0.099,0.305,0.033,0.305,0.033l0.109,0.13l-0.131,0.099l-0.15,0.227l-0.218,0.284l0.175,0.457
		c0,0,0.151,0.076,0.25,0.063c0.101-0.01,0.209-0.063,0.272-0.119c0.027-0.022,0.167-0.061,0.318-0.094l-0.051,0.305
		c-0.049,0.02-0.104-0.021-0.229-0.021c-0.171,0-0.217,0.078-0.37,0.093c-0.155,0.017-0.062,0.124-0.062,0.201
		s0.217,0.17,0.217,0.17l-0.17,0.108c0,0-0.078-0.17-0.23-0.154c-0.153,0.016-0.093,0.216-0.188,0.293
		c-0.092,0.077,0.062,0.311,0.062,0.311s-0.111,0.013-0.213,0.07c-0.013,0.008-0.023,0.014-0.035,0.021
		c-0.107,0.076-0.14,0.016-0.14,0.016s-0.062-0.093-0.139-0.093c-0.078,0-0.188,0.123-0.265,0.153c-0.078,0.031-0.34,0-0.34,0
		l-0.171-0.186l-0.141,0.141c0,0-0.123-0.031-0.201-0.125c-0.075-0.093,0-0.076-0.016-0.154c-0.015-0.077-0.046-0.077-0.046-0.077
		l0.077-0.123l0.201-0.124c0,0,0.046-0.277-0.047-0.4c-0.094-0.125-0.094,0.123-0.094,0.123l-0.309,0.2l0.016,0.418l-0.063,0.185
		l-0.12-0.029l-0.077,0.093c0,0-0.078-0.047-0.2-0.093c-0.125-0.047-0.341,0.154-0.341,0.154l-0.028,0.069l-0.049,0.115l-0.17-0.031
		l-0.093,0.108c0,0-0.108,0-0.187,0s-0.03,0.139-0.03,0.139s-0.054,0.062-0.114,0.085l-0.027-0.036c-0.09-0.012-0.113,0-0.168,0.045
		c-0.025,0.021-0.063,0.033-0.099,0.043c-0.044,0.01-0.082,0.014-0.082,0.014L15.2,13.487c0,0-0.056-0.103-0.111-0.022
		c-0.057,0.08-0.035,0.135-0.035,0.135l0.023,0.137l-0.113,0.011l-0.022-0.007l-0.056-0.016l-0.195-0.118l-0.029-0.017
		c0,0-0.135-0.023-0.111,0.066c0.021,0.09,0.135,0.202,0.135,0.259c0,0.007,0.003,0.011,0.007,0.015
		c0.034,0.039,0.196,0.027,0.196,0.099c0,0.079-0.103,0.169-0.103,0.169s0.079,0.066,0.079,0.169c0,0.101-0.023,0.247-0.046,0.313
		c-0.022,0.067-0.078,0.045-0.101,0.113c-0.006,0.018-0.017,0.036-0.027,0.055c-0.035,0.058-0.085,0.113-0.085,0.113
		s-0.169,0.045-0.226,0.022c-0.058-0.022-0.103-0.103-0.203-0.123c-0.023-0.006-0.041-0.006-0.055-0.004
		c-0.039,0.005-0.046,0.026-0.146-0.042c-0.137-0.09-0.18-0.124-0.271-0.157c-0.09-0.032-0.135-0.112-0.135-0.112
		s-0.018-0.011-0.041-0.023c-0.041-0.023-0.104-0.055-0.139-0.055c-0.057,0-0.146,0.102-0.146,0.102s0.021,0.09,0,0.202
		c-0.021,0.112,0.021,0.169-0.045,0.214s-0.079,0.011-0.09,0.102c-0.012,0.09,0.045,0.045-0.045,0.135
		c-0.081,0.082-0.044,0.08-0.102,0.121c-0.007,0.004-0.015,0.01-0.022,0.015c-0.091,0.057-0.124,0.045-0.181,0.136
		c-0.057,0.09-0.078,0.189-0.078,0.27c0,0.078,0.246,0.359,0.246,0.359s0.017,0.004,0.035,0.01c0.039,0.012,0.102,0.039,0.102,0.092
		c0,0.08-0.092,0.113,0,0.17c0.09,0.057,0.045,0.066,0.101,0.102c0.027,0.016,0.196,0.053,0.364,0.088
		c0.184,0.036,0.367,0.069,0.367,0.069l0.124-0.09h0.103h0.111l0.056-0.191l0.169-0.011l0.012-0.182c0,0-0.022-0.18,0.033-0.18
		c0.027,0,0.11-0.047,0.188-0.094c0.078-0.048,0.15-0.098,0.15-0.098s0.043,0.009,0.101,0.017c0.086,0.013,0.202,0.022,0.237-0.006
		c0.057-0.045,0.181-0.226,0.181-0.226s-0.026-0.144,0.003-0.205c0.009-0.02,0.021-0.03,0.041-0.03c0.09,0,0.305,0.012,0.372,0.079
		c0.067,0.066,0.235,0.156,0.304,0.146c0.059-0.011,0.151-0.07,0.219-0.117l0.028-0.02c0.024-0.018,0.091-0.064,0.164-0.119
		c0.003,0.006,0.005,0.008,0.005,0.008s0.157,0.021,0.202,0.102c0.045,0.078,0.067,0.225,0.045,0.314
		c-0.022,0.088,0.146,0.168,0.202,0.235s0.328,0.428,0.417,0.54c0.09,0.111,0.271,0.314,0.271,0.314l0.09,0.215l-0.19,0.135
		c0,0-0.203-0.012-0.271-0.034c-0.068-0.021-0.123,0.045-0.123,0.045s-0.047-0.021-0.147-0.111c-0.102-0.091-0.033,0.012-0.158,0.08
		c-0.123,0.065,0.158,0.168,0.227,0.225c0.066,0.058,0.156,0.156,0.201,0.215c0.045,0.056,0.158-0.021,0.158-0.112
		c0-0.091,0.012-0.169,0.012-0.169h0.201l0.125-0.146l0.103-0.089l0.045-0.125l-0.079-0.225c0,0,0.137-0.045,0.189-0.045
		c0.059,0,0.113,0.169,0.113,0.169l0.059,0.022c0,0,0-0.135-0.034-0.191c-0.033-0.057-0.214-0.191-0.214-0.191
		s-0.202-0.078-0.261-0.123c-0.056-0.045-0.188-0.281-0.258-0.404c-0.067-0.124-0.021-0.137-0.033-0.191
		c-0.012-0.057-0.125-0.124-0.17-0.201c-0.045-0.08-0.032-0.191-0.032-0.191s0.102-0.067,0.214-0.135
		c0.04-0.024,0.059-0.041,0.062-0.051c0.045,0.047,0.162,0.182,0.162,0.264c0,0.102,0.045,0.214,0.067,0.281
		c0.022,0.066,0.157,0.123,0.338,0.157c0.181,0.033,0.123,0.157,0.123,0.157s0.169,0.202,0.189,0.338
		c0.021,0.135,0.021,0.202,0.033,0.371c0.012,0.168,0.092,0.189,0.146,0.352c0.057,0.154,0.076,0.154,0.111,0.277
		c0.017,0.059,0.027,0.114,0.047,0.171c-0.11,0.412-0.229,0.828-0.354,1.246c-0.105,0.099-0.182,0.454-0.182,0.454
		s-0.033,0.021-0.082,0.032h0.001l-0.235-0.057l0,0c-0.118-0.127-0.392-0.178-0.536-0.271c-0.147-0.1-0.147-0.312-0.263-0.411
		c-0.115-0.101-0.197-0.049-0.197-0.049s-0.328-0.066-0.395-0.148c-0.035-0.044-0.094-0.109-0.141-0.162
		c-0.041-0.049-0.074-0.082-0.074-0.082s0.031-0.031,0.074-0.065c0.049-0.042,0.111-0.089,0.156-0.099
		c0.082-0.019-0.033-0.184-0.132-0.348s0.263-0.214,0.246-0.296c-0.017-0.08-0.173-0.082-0.271-0.128l-0.008-0.003
		c-0.1-0.051-0.328,0-0.328,0l-0.313-0.064c0,0-0.099,0.031-0.181,0.064c-0.029,0.012-0.067,0.006-0.106-0.014
		c-0.071-0.029-0.147-0.103-0.188-0.188c-0.045-0.09-0.138-0.071-0.231-0.077c-0.044-0.004-0.089-0.012-0.13-0.037
		c-0.045-0.027-0.084-0.037-0.121-0.035c-0.072,0.002-0.139,0.041-0.225,0.053c-0.107,0.014-0.25,0.049-0.344,0.061
		c-0.02,0.004-0.037,0.006-0.051,0.006c-0.082,0-0.182,0.064-0.296,0.131c-0.115,0.064-0.147-0.182-0.147-0.182s-0.035,0-0.1-0.012
		c-0.066-0.013-0.169-0.036-0.296-0.087c-0.246-0.1-0.132-0.247-0.132-0.247s-0.045,0.037-0.139,0.119
		c-0.031,0.026-0.065,0.059-0.106,0.095c-0.165,0.146-0.214,0.213-0.362,0.197c-0.146-0.018-0.229,0.049-0.328,0.099
		c-0.091,0.046-0.292,0.396-0.322,0.452c-1.959-0.673-3.896-1.463-5.646-2.391c-0.076-0.041-0.199-0.108-0.351-0.194
		c0,0,0,0,0,0.001c-0.26-0.146-0.605-0.352-0.973-0.588c0.235-1.217,0.659-2.393,1.258-3.484c-0.009,0.014-0.018,0.027-0.023,0.043
		c-2.153,0.031-3.549,0.435-3.76,1.221c-0.489,1.83,5.572,5.043,13.537,7.179C16.789,19.547,17.675,19.761,18.541,19.953z
		 M16.119,16.587c-0.055,0.021-0.055,0.144-0.055,0.144s0.044,0.055,0.1,0.065c0.036,0.008,0.078,0.004,0.137-0.009
		c0.026-0.006,0.059-0.014,0.095-0.024c0.108-0.032,0.043-0.088,0.065-0.164c0.021-0.077,0.021-0.178,0.065-0.254
		c0.044-0.076-0.089-0.133-0.089-0.133s-0.102,0.144-0.139,0.202l-0.004,0.007C16.262,16.475,16.175,16.564,16.119,16.587z
		 M16.3,15.998c0.059-0.012,0.189-0.047,0.217-0.116c0.031-0.088,0.021-0.043,0.055-0.143s-0.089,0.033-0.089,0.033l-0.144,0.088
		L16.3,15.945l-0.026,0.058C16.274,16.003,16.283,16.003,16.3,15.998z"/>
</g>
</svg>