<?xml version="1.0" encoding="utf-8"?><!-- Uploaded to: SVG Repo, www.svgrepo.com, Generator: SVG Repo Mixer Tools -->
<svg fill="#000000" width="800px" height="800px" viewBox="0 0 24 24" id="sort-descending" data-name="Flat Color" xmlns="http://www.w3.org/2000/svg" class="icon flat-color"><path id="secondary" d="M10.71,7.29l-4-4a1,1,0,0,0-1.42,0l-4,4A1,1,0,0,0,2.71,8.71L5,6.41V19a1,1,0,0,0,2,0V6.41l2.29,2.3a1,1,0,0,0,1.42,0A1,1,0,0,0,10.71,7.29Z" style="fill: rgb(44, 169, 188);"></path><path id="primary" d="M20,18H10a1,1,0,0,1,0-2H20a1,1,0,0,1,0,2Zm0-5H13a1,1,0,0,1,0-2h7a1,1,0,0,1,0,2Zm0-5H15a1,1,0,0,1,0-2h5a1,1,0,0,1,0,2Z" style="fill: rgb(0, 0, 0);"></path></svg>